PathFileType	4	(X/Y/Z)	/Users/niels/Desktop/University/Third Semester/Perception and Action/Exam/Gymnastics Motion Tracking/Code for Gym Tracking/Analyzed Data/kraft_good_id2_1_Sports2D/kraft_good_id2_1_Sports2D_px_person00.trc
DataRate	CameraRate	NumFrames	NumMarkers	Units	OrigDataRate	OrigDataStartFrame	OrigNumFrames
143.44186046511626	143.44186046511626	10	22	m	143.44186046511626	129	258
Frame#	Time	Hip			RHip			RKnee			RAnkle			RBigToe			RSmallToe			RHeel			LHip			LKnee			LAnkle			LBigToe			LSmallToe			LHeel			Neck			Head			Nose			RShoulder			RElbow			RWrist			LShoulder			LElbow			LWrist		
		X1	Y1	Z1	X2	Y2	Z2	X3	Y3	Z3	X4	Y4	Z4	X5	Y5	Z5	X6	Y6	Z6	X7	Y7	Z7	X8	Y8	Z8	X9	Y9	Z9	X10	Y10	Z10	X11	Y11	Z11	X12	Y12	Z12	X13	Y13	Z13	X14	Y14	Z14	X15	Y15	Z15	X16	Y16	Z16	X17	Y17	Z17	X18	Y18	Z18	X19	Y19	Z19	X20	Y20	Z20	X21	Y21	Z21	X22	Y22	Z22
129	0.89931906614786	0.5954856533312416	-0.34016322624811807	0.0	0.5906313395683028	-0.343383153279983	0.0	0.510036956007205	-0.35814589857263646	0.0	0.4357358976049544	-0.36570207806710375	0.0	0.41812667121681835	-0.4120760390376649	0.0	0.4158136711217314	-0.3857460081072325	0.0	0.4181795127134017	-0.34436299817983396	0.0	0.5988268512020954	-0.33336248786567724	0.0	0.5757073291601873	-0.2733339464116802	0.0	0.5633309919559085	-0.19470294999539453	0.0	0.5565066922509825	-0.17576612957236415	0.0	0.5536935300036248	-0.18090179680619115	0.0	0.5583605646812225	-0.17451395659878388	0.0	0.6536460812287421	-0.4252053299671646	0.0	0.7051269334287052	-0.44318668793826116	0.0	0.6780455992246239	-0.4460825413735752	0.0	0.6493965701590945	-0.4322873082686306	0.0	0.6683331793860144	-0.4837387907167671	0.0	0.6921832955846385	-0.5289367112643867	0.0	0.6553113671545752	-0.42647882152578315	0.0	0.6700659762297264	-0.4742836331856942	0.0	0.6886578980858383	-0.5212793447589009	0.0
130	0.9062905317769131	0.6015078529227034	-0.3399769952696912	0.0	0.5965300404242677	-0.34327531248204807	0.0	0.5156700469423652	-0.35498183287854357	0.0	0.44094026329512104	-0.3607851917164489	0.0	0.422041390581716	-0.40304378854205625	0.0	0.41965777431187556	-0.37906597962399147	0.0	0.4240979899786531	-0.34165975484435973	0.0	0.6053487594790564	-0.3332234237564491	0.0	0.5858439133124783	-0.2687529491485895	0.0	0.5769080788060134	-0.1893773027399204	0.0	0.5711260548591606	-0.1678156098907969	0.0	0.5683984065730615	-0.17236208503097558	0.0	0.57244131869182	-0.17115875268598166	0.0	0.6572142540087237	-0.4270645478609847	0.0	0.7085511614757435	-0.4463671709008086	0.0	0.6813716325275375	-0.448633737150434	0.0	0.6526111014869105	-0.4339898335252467	0.0	0.670870633941983	-0.48551757144434377	0.0	0.6945591242269981	-0.5310999305973471	0.0	0.6591754795085817	-0.4286527279552688	0.0	0.6733546384306235	-0.47616531899608044	0.0	0.6914872488157934	-0.5234936606203342	0.0
131	0.9132619974059664	0.6074626513969494	-0.3398676978591144	0.0	0.6023545458993407	-0.3432100977301297	0.0	0.5214480344374541	-0.3515003417718292	0.0	0.44648335230971853	-0.35518674091056524	0.0	0.42642028333153803	-0.3932535499539565	0.0	0.42400936459305955	-0.37157708984188403	0.0	0.4303375520679238	-0.3382030446590788	0.0	0.6117929583586581	-0.33316462729874774	0.0	0.5959097219641609	-0.26464102777339465	0.0	0.590383644852241	-0.18478444656279056	0.0	0.5856890206037628	-0.16077287348692168	0.0	0.5830377094822422	-0.1648349188415356	0.0	0.5864289650356793	-0.1684424252838538	0.0	0.6607157583268513	-0.4289109435761779	0.0	0.7119145046108638	-0.4494975998559241	0.0	0.6846318239662116	-0.4511378776184519	0.0	0.6557388961275286	-0.4356421348947853	0.0	0.6732373949567447	-0.4872232213366578	0.0	0.6966721103016851	-0.5331868118522897	0.0	0.6630018407106057	-0.43079878247975695	0.0	0.6765454643793308	-0.4779779808604835	0.0	0.6940890721726163	-0.5256382526286631	0.0
132	0.9202334630350195	0.6133406429752253	-0.33982677666338673	0.0	0.6080950780633727	-0.34317804717886286	0.0	0.5273932036811457	-0.34771239771327717	0.0	0.4524148032259616	-0.3489361094688691	0.0	0.4313276819582361	-0.38276676284961464	0.0	0.42892725517311275	-0.36331723912613567	0.0	0.4369486280607286	-0.33400136774436084	0.0	0.6181486138496342	-0.3331781538234845	0.0	0.6058833516066905	-0.26100727885323893	0.0	0.6037252571588277	-0.1809159130657277	0.0	0.6001520945667086	-0.1546356331595155	0.0	0.5975657136145286	-0.15831138442697787	0.0	0.6002861531938077	-0.16634197534148215	0.0	0.6641518837675306	-0.4307339153887506	0.0	0.71521137525128	-0.45256530320745963	0.0	0.6878246185105104	-0.45358353169900056	0.0	0.6587821461732338	-0.4372303672472284	0.0	0.6754374437867373	-0.48884501040409684	0.0	0.6985342444416243	-0.5351866435114642	0.0	0.6667918285236539	-0.4329015415730182	0.0	0.6796459027062483	-0.47971114903728534	0.0	0.6964771486953852	-0.5277013903406439	0.0
133	0.9272049286640727	0.6191341544296316	-0.3398448095172381	0.0	0.6137440518017262	-0.3431695300615193	0.0	0.5335275619559803	-0.34363515530988786	0.0	0.45878234787443034	-0.3420762307582477	0.0	0.4368235270530872	-0.37165697131542813	0.0	0.4344657204259559	-0.3543399132497369	0.0	0.4439811855781811	-0.32908251106365727	0.0	0.6244064294591484	-0.33325557703933595	0.0	0.6157455615934112	-0.2578530167750065	0.0	0.6169049450499892	-0.17775591765883617	0.0	0.6144774054710721	-0.14939061571135745	0.0	0.6119421964303157	-0.15277076592777827	0.0	0.6139805957443283	-0.16483113672198033	0.0	0.6675232727146153	-0.4325226916560186	0.0	0.718435253725672	-0.4555575929936397	0.0	0.6909476520800432	-0.45595907807274777	0.0	0.6617436147838363	-0.43874137540580915	0.0	0.6774763425350486	-0.4903726453318425	0.0	0.7001601179950543	-0.5370892752415863	0.0	0.6705455798288205	-0.43494532096142885	0.0	0.682663368381883	-0.481354876619541	0.0	0.6986664823814854	-0.5296708029943471	0.0
134	0.9341763942931258	0.6248385122608727	-0.3399113630161796	0.0	0.6192971532727314	-0.34317471207844197	0.0	0.5398729552135765	-0.33929064936297276	0.0	0.46563037644186017	-0.3346606667101046	0.0	0.4429606686001631	-0.3600071295994678	0.0	0.44067187998120844	-0.34471162826447793	0.0	0.451482950061627	-0.32348962998749775	0.0	0.6305600277699637	-0.3333874869996883	0.0	0.6254803516057225	-0.25517260282383536	0.0	0.6299009530296353	-0.17528215557042098	0.0	0.6286348059800068	-0.14501586340310935	0.0	0.626135708520233	-0.1481833306902914	0.0	0.6274873490239267	-0.16388096069992564	0.0	0.67083079134397	-0.43426676208813325	0.0	0.7215796438327597	-0.45846273949135563	0.0	0.69399825143012	-0.4582531270558784	0.0	0.6646270544957344	-0.4401631694619127	0.0	0.679361396924737	-0.4917967485285862	0.0	0.7015665116778801	-0.5388856409315139	0.0	0.6742627283769649	-0.4369150266062461	0.0	0.6856052247202595	-0.48290001299150276	0.0	0.7006727341671254	-0.5315334462976851	0.0
135	0.9411478599221791	0.6304517415711954	-0.34001517894827626	0.0	0.6247527405449251	-0.3431837761778257	0.0	0.5464503484551074	-0.3347052417140837	0.0	0.4729987137799208	-0.3267521013020408	0.0	0.44978342382734054	-0.34790785416598696	0.0	0.44758444456830826	-0.3345102419931136	0.0	0.45949798727482916	-0.31727908392098525	0.0	0.6366056815756371	-0.33356371836526577	0.0	0.6350745446199617	-0.2529544812258097	0.0	0.6426971682506738	-0.17346689315139044	0.0	0.6426011028166089	-0.14148256325164293	0.0	0.6401232721196588	-0.1445125028983729	0.0	0.6407885157349705	-0.16346056378483578	0.0	0.6740755626204697	-0.4359557698388615	0.0	0.724638221624632	-0.46127004244754616	0.0	0.6969735065973928	-0.46045440392414605	0.0	0.6674369337950368	-0.44148503891058316	0.0	0.6811013933178475	-0.4931089528043114	0.0	0.7027717336736276	-0.5405679285709318	0.0	0.6779424955255495	-0.438796341751327	0.0	0.6884784881534635	-0.4843382100515092	0.0	0.7025119081865262	-0.5332760270776602	0.0
136	0.9481193255512322	0.6359735268156707	-0.34014446060013354	0.0	0.6301107091163587	-0.3431871679428154	0.0	0.5532785920255986	-0.3299094700849236	0.0	0.480921792070043	-0.31842161387748086	0.0	0.45732737395158013	-0.33545693519739045	0.0	0.4552338036512585	-0.32382382279700533	0.0	0.4680657749064826	-0.3105193421908499	0.0	0.6425413646950872	-0.3337738480707686	0.0	0.6445168305476294	-0.25118224929514854	0.0	0.6552814786136023	-0.1722781064784225	0.0	0.6563583531466965	-0.1387566795726018	0.0	0.6538884700235843	-0.1417165034123842	0.0	0.6538716231521633	-0.1635378746934865	0.0	0.677258216859788	-0.4375791616301102	0.0	0.7276044443706143	-0.4639693806198054	0.0	0.6998698943932877	-0.4625515076291906	0.0	0.6701776174952571	-0.4426973512738913	0.0	0.6827061178008127	-0.4943017539713717	0.0	0.7037948420684671	-0.5421295788178047	0.0	0.6815832726812056	-0.44057559206476865	0.0	0.6912894878656505	-0.4856619414620632	0.0	0.7042002208529937	-0.534886262480438	0.0
137	0.9550907911802854	0.6414045712474133	-0.3402870961844276	0.0	0.6353719916450972	-0.3431756414524159	0.0	0.560373530134404	-0.324937499539209	0.0	0.489428215258294	-0.3097472999369648	0.0	0.4656196862819428	-0.3227582809249094	0.0	0.46364282558464104	-0.31274837618011686	0.0	0.4772204865524498	-0.30328918822546064	0.0	0.6483663082211023	-0.3340074933158104	0.0	0.6537975982043187	-0.24983552722176944	0.0	0.6676449435818429	-0.17168062710787044	0.0	0.6698931909350363	-0.13680072094355147	0.0	0.667420230506921	-0.13974990160685724	0.0	0.6667285309297623	-0.16408028623037182	0.0	0.6803782051714872	-0.4391260176052985	0.0	0.7304714705658832	-0.4665507219924034	0.0	0.7026832731075224	-0.4645327455211751	0.0	0.6728525114861135	-0.4437911934590895	0.0	0.684186034294313	-0.49536842631555034	0.0	0.7046549650754574	-0.5435652831778971	0.0	0.6851822263378281	-0.4422397909149813	0.0	0.6940437974844853	-0.4868647336022441	0.0	0.7057539704685802	-0.536354113537902	0.0
138	0.9620622568093385	0.646746438710133	-0.34043086886821117	0.0	0.6405386568521952	-0.3431402419126216	0.0	0.5677477279005848	-0.31982629557049863	0.0	0.4985406844319667	-0.3008123992944072	0.0	0.4746798406724721	-0.30991948118057683	0.0	0.47282797279695005	-0.3013847901876957	0.0	0.486990416219548	-0.2956752966743934	0.0	0.6540810130575346	-0.33425442548894146	0.0	0.662909260455345	-0.24889078498026054	0.0	0.6797817508649064	-0.17163719665672597	0.0	0.683196681503291	-0.13557543423608315	0.0	0.6807122292484189	-0.13856532529341392	0.0	0.6793549278170651	-0.16505511401974995	0.0	0.6834336598895415	-0.4405850536943001	0.0	0.7332323877020941	-0.4690036928453337	0.0	0.7054093620794852	-0.4663859420199839	0.0	0.6754636739177821	-0.44475816510909966	0.0	0.6855521886818192	-0.4963030711810393	0.0	0.7053709104368137	-0.5448708977936916	0.0	0.688735185110913	-0.4437768626889037	0.0	0.696746311513689	-0.48794136213549216	0.0	0.7071892615914973	-0.5376722857284133	0.0
